<?xml version="1.0" encoding="utf-8"?>
<!-- Generator: Adobe Illustrator 16.2.0, SVG Export Plug-In . SVG Version: 6.00 Build 0)  -->
<!DOCTYPE svg PUBLIC "-//W3C//DTD SVG 1.1//EN" "http://www.w3.org/Graphics/SVG/1.1/DTD/svg11.dtd">
<svg version="1.1" xmlns="http://www.w3.org/2000/svg" xmlns:xlink="http://www.w3.org/1999/xlink" x="0px" y="0px"
	 width="841.891px" height="595.281px" viewBox="0 0 841.891 595.281" enable-background="new 0 0 841.891 595.281"
	 xml:space="preserve">
<g id="图层_1">
	<g>
		<path fill="none" stroke="#000000" stroke-width="4" stroke-miterlimit="10" d="M430.511,175.957
			c-24.74,7.802-70.143,20.936-82.385,25.091c-15.874,5.387-34.682,6.093-49.846,13.259"/>
		<path fill="none" stroke="#000000" stroke-width="4" stroke-miterlimit="10" d="M484.278,295.474
			c-3.833-15.333-9.833-29.333-12.833-44.333c-14-24-27.376-51.629-40.934-75.184"/>
	</g>
	<g>
		<g>
			<path fill="none" stroke="#000000" stroke-width="4" stroke-miterlimit="10" d="M298.281,216.275
				c-14.397,12.377,15.164,51.697,69.164,82.656s97.555,26.325,115.765,0c5.735-8.291-31.265-33.757-43.346-38.779
				c-4.318-1.795-57.457-37.638-89.529-44.189C334.603,212.75,314.117,202.661,298.281,216.275z"/>
		</g>
	</g>
	<path fill="none" stroke="#000000" stroke-width="4" stroke-miterlimit="10" d="M412.279,317.541
		c0.833-4.567,0.833-4.567,0.833-4.567l0,0c0,0,15.669-71.205,15.5-79.638l1.899-57.379"/>
	<path fill="none" stroke="#000000" stroke-width="4" stroke-miterlimit="10" d="M387.858,230.307c0,0,6.087-12,10.087-16
		s13.002-13.121,15.018-15.903c6.239-8.61,17.548-22.447,17.548-22.447"/>
	<path fill="none" stroke="#000000" stroke-width="4" stroke-miterlimit="10" d="M298.281,216.275c0,0-14.608,34.377-13.222,48.621
		s7.636,34.494,18.136,46.994s21.25,23.25,21.25,23.25"/>
	<path fill="none" stroke="#000000" stroke-width="4" stroke-miterlimit="10" d="M484.278,296.64
		c-3.507,15.764-21.338,42.508-31.583,50s-42.047,18.389-61.844,13.156"/>
	<path fill="none" stroke="#000000" stroke-width="4" stroke-miterlimit="10" d="M328.861,320.448
		c-5.113,21.866-24.078,50.005-41.997,63.474"/>
	<path fill="none" stroke="#000000" stroke-width="4" stroke-miterlimit="10" d="M328.029,320.807
		c8.767,10.278,33.417,19.333,37.167,22.083s15.14,5.875,27.344,15.375"/>
	<path fill="none" stroke="#000000" stroke-width="4" stroke-miterlimit="10" d="M391.695,356.14
		c-5.787,11.25-27.75,25.75-34.25,30.75s-21.686,13.424-23.461,16.316"/>
	<path fill="none" stroke="#000000" stroke-width="4" stroke-miterlimit="10" d="M287.07,384.734
		c11,1.625,40.097,12.857,45.33,18.976"/>
	<path fill="none" stroke="#000000" stroke-width="4" stroke-miterlimit="10" d="M441.695,354.39c-2.75,8-5.283,29.531-5.151,34.687
		c0.137,5.343,0.714,34.89-3.536,39.931"/>
	<path fill="none" stroke="#000000" stroke-width="4" stroke-miterlimit="10" d="M412.195,361.925
		c0.5,11.34-4.98,37.585-2.281,45.34"/>
	<path fill="none" stroke="#000000" stroke-width="4" stroke-miterlimit="10" d="M352.095,392.432
		c1.266,3.625-0.435,43.875-0.435,43.875"/>
	<path fill="none" stroke="#000000" stroke-width="4" stroke-miterlimit="10" d="M333.32,402.098
		c-0.083,3.125,0.684,24.104,0.684,24.104"/>
	<path fill="none" stroke="#000000" stroke-width="4" stroke-miterlimit="10" d="M352.564,407.015
		c7.631-1.75,28.881-4.111,37.881-3.306s30.875,5.931,37.375,13.556s10.063,14.359-6.875,21.125
		c-12.75,5.093-63.875,2.959-75.75-2.083s-13.875-14.573-11.191-18.729"/>
	<path fill="none" stroke="#000000" stroke-width="4" stroke-miterlimit="10" d="M340.565,433.784c0,0-26.808,33.107-28.933,34.732"
		/>
	<path fill="none" stroke="#000000" stroke-width="4" stroke-miterlimit="10" d="M425.82,437.765
		c3.375,2,20.214,30.498,21.688,33.063"/>
	<path fill="none" stroke="#000000" stroke-width="4" stroke-miterlimit="10" d="M447.221,470.89
		c-17.474,14.25-36.071,20.268-64.174,19.5s-58.751-10.992-71.227-23.75"/>
	<path fill="none" stroke="#000000" stroke-width="4" stroke-miterlimit="10" d="M312.195,466.468
		c1.375,3.953,5.249,24.923,1.958,45.548"/>
	<path fill="none" stroke="#000000" stroke-width="4" stroke-miterlimit="10" d="M447.221,469.89c0.349,5.75-1.589,29.5-0.24,44.5"
		/>
	<path fill="none" stroke="#000000" stroke-width="4" stroke-miterlimit="10" d="M313.802,510.39
		c18.857,12.697,43.901,22.996,65.959,22.875s53.496-11,67.46-19.625"/>
</g>
<g id="图层_2">
</g>
</svg>
