<?xml version="1.0" encoding="utf-8"?>
<!-- Generator: Adobe Illustrator 16.2.0, SVG Export Plug-In . SVG Version: 6.00 Build 0)  -->
<!DOCTYPE svg PUBLIC "-//W3C//DTD SVG 1.1//EN" "http://www.w3.org/Graphics/SVG/1.1/DTD/svg11.dtd">
<svg version="1.1" id="图层_1" xmlns="http://www.w3.org/2000/svg" xmlns:xlink="http://www.w3.org/1999/xlink" x="0px" y="0px"
	 width="153.333px" height="98.667px" viewBox="0 0 153.333 98.667" enable-background="new 0 0 153.333 98.667"
	 xml:space="preserve">
<path fill="#FFFFFF" stroke="#000000" stroke-width="5" stroke-miterlimit="10" d="M126.5,81.833c0,6.627-5.373,12-12,12H39
	c-6.627,0-12-5.373-12-12v-63c0-6.627,5.373-12,12-12h75.5c6.627,0,12,5.373,12,12V81.833z"/>
<polyline fill="none" stroke="#000000" stroke-width="5" stroke-miterlimit="10" points="27,34.333 5,20.667 5,80.167 27,69.5 "/>
<polyline fill="none" stroke="#000000" stroke-width="5" stroke-miterlimit="10" points="127.454,68.083 149.454,81.75 
	149.454,22.25 127.454,32.917 "/>
<path fill="none" stroke="#000000" stroke-width="5" stroke-miterlimit="10" d="M94.11,47.832c1.488-0.995,5.366-0.813,6.251,0.178
	c0.061,5.226,7.295,7.091,10.138,5.697c0.912,0.16,3.434,5.098,3.111,5.74c-5.097,3.594-2.058,10.598,0,11.48
	c0.452,1.035-1.314,4.574-3.005,5.648c-4.224-1.719-9.307,1.809-10.3,6.127c-0.857,0.711-5.002,0.713-6.437-0.027
	c-0.282-4.881-5.794-7.98-10.139-6.1c-1.208-0.352-3.246-4.428-3.005-5.434c3.648-2.602,3.099-8.945,0.147-11.695
	c0.054-2.4,1.502-4.586,2.938-5.672C88.558,56.63,94.753,50.808,94.11,47.832z"/>
<path fill="#FFFFFF" stroke="#000000" stroke-width="6" stroke-miterlimit="10" d="M61.792,19.041
	c2.313-1.545,8.336-1.263,9.711,0.278c0.093,8.116,11.332,11.015,15.748,8.849c1.416,0.25,5.334,7.917,4.834,8.917
	c-7.918,5.583-3.197,16.461,0,17.833c0.701,1.608-2.043,7.104-4.668,8.775c-6.563-2.671-14.458,2.809-16,9.518
	c-1.333,1.104-7.771,1.107-10-0.043c-0.438-7.582-9-12.396-15.75-9.475c-1.875-0.546-5.042-6.879-4.667-8.441
	c5.667-4.041,4.813-13.896,0.229-18.167c0.083-3.729,2.333-7.125,4.563-8.813C53.167,32.708,62.792,23.666,61.792,19.041z"/>
<circle fill="none" stroke="#000000" stroke-width="5" stroke-miterlimit="10" cx="66.698" cy="46.272" r="6.578"/>
<circle fill="none" stroke="#000000" stroke-width="4" stroke-miterlimit="10" cx="97.193" cy="65.144" r="4.625"/>
</svg>
